<?xml version="1.0" encoding="iso-8859-1"?>
<!-- Generator: Adobe Illustrator 19.0.0, SVG Export Plug-In . SVG Version: 6.00 Build 0)  -->
<svg version="1.1" id="Layer_1" xmlns="http://www.w3.org/2000/svg" xmlns:xlink="http://www.w3.org/1999/xlink" x="0px" y="0px"
	 viewBox="0 0 460 460" style="enable-background:new 0 0 460 460;" xml:space="preserve">
<g id="XMLID_1190_">
	<path id="XMLID_892_" style="fill:#69583E;" d="M459.626,323.374l-8.644-77.791C448.732,225.325,431.609,210,411.227,210h-25.933
		l-3.079-52.349c-1.089-18.51-14.644-33.467-32.215-36.905V80c0-11.046-8.954-20-20-20h-30V40c0-22.091-17.909-40-40-40h-60
		c-22.091,0-40,17.909-40,40v20h-30c-11.046,0-20,8.954-20,20v40.746c-17.571,3.438-31.126,18.396-32.215,36.905L74.706,210H48.773
		c-20.382,0-37.505,15.325-39.755,35.583l-8.644,77.791C-3.575,358.916,24.247,390,60.007,390h4.111l-1.627,27.651
		C61.14,440.626,79.407,460,102.422,460h255.156c23.015,0,41.282-19.374,39.931-42.349L395.882,390h4.111
		C435.753,390,463.575,358.916,459.626,323.374z M190,35c0-2.761,2.239-5,5-5h70c2.761,0,5,2.239,5,5v25h-80V35z"/>
	<path id="XMLID_947_" style="fill:#4E3F32;" d="M399.993,390h-4.111l-10.588-180h25.933c20.382,0,37.505,15.325,39.755,35.583
		l8.644,77.791C463.575,358.916,435.753,390,399.993,390z M64.118,390h-4.111c-35.761,0-63.582-31.084-59.633-66.626l8.644-77.791
		C11.268,225.325,28.391,210,48.773,210h25.933L64.118,390z"/>
	<path id="XMLID_899_" style="fill:#4E3F32;" d="M310,120v340h-50V120h10V35c0-2.761-2.239-5-5-5h-70c-2.761,0-5,2.239-5,5v85h10
		v340h-50V120h10V40c0-22.091,17.909-40,40-40h60c22.091,0,40,17.909,40,40v80H310z"/>
	<path id="XMLID_901_" style="fill:#8C7554;" d="M210,320v10c0,5.523-4.477,10-10,10h-50c-5.523,0-10-4.477-10-10v-10
		c5.523,0,10-4.477,10-10v-10c0-5.523-4.477-10-10-10v-10c0-5.523,4.477-10,10-10h50c5.523,0,10,4.477,10,10v10
		c-5.523,0-10,4.477-10,10v10C200,315.523,204.477,320,210,320z M320,290v-10c0-5.523-4.477-10-10-10h-50c-5.523,0-10,4.477-10,10
		v10c5.523,0,10,4.477,10,10v10c0,5.523-4.477,10-10,10v10c0,5.523,4.477,10,10,10h50c5.523,0,10-4.477,10-10v-10
		c-5.523,0-10-4.477-10-10v-10C310,294.477,314.477,290,320,290z"/>
	<path id="XMLID_889_" style="fill:#8C7554;" d="M310,170H150c-22.091,0-40-17.909-40-40V80c0-11.046,8.954-20,20-20h200
		c11.046,0,20,8.954,20,20v50C350,152.091,332.091,170,310,170z"/>
	<path id="XMLID_888_" style="fill:#4E3F32;" d="M300,120H160c-5.523,0-10-4.477-10-10v-10c0-5.523,4.477-10,10-10h140
		c5.523,0,10,4.477,10,10v10C310,115.523,305.523,120,300,120z"/>
</g>
<g>
</g>
<g>
</g>
<g>
</g>
<g>
</g>
<g>
</g>
<g>
</g>
<g>
</g>
<g>
</g>
<g>
</g>
<g>
</g>
<g>
</g>
<g>
</g>
<g>
</g>
<g>
</g>
<g>
</g>
</svg>
