<svg id="_x33_0" enable-background="new 0 0 64 64" height="512" viewBox="0 0 64 64" width="512" xmlns="http://www.w3.org/2000/svg"><g><g><g fill="#dfb28b"><path d="m39 44.89v5.11h-11s0-7 1-11c.67 0 1.26-.33 1.63-.84l3.37.84v4c1.51 1 3.21 1.65 5 1.89z"/><path d="m41.81 46.24c.11.45.51.76.97.76h2.51c1.88 0 3.57-.19 5.19-.55l-3 6.21c-.95 2.14-2.7 3.83-4.87 4.7-1.06.42-2.2.64-3.34.64h-11.27-5c-.55 0-1-.45-1-1v-5-1c0-.55.45-1 1-1h5 11v-5.11c.53.07 1.07.11 1.61.11h.89z"/><path d="m54 45.35v16.65h-26v-4h11.27c1.14 0 2.28-.22 3.34-.64 2.17-.87 3.92-2.56 4.87-4.7l3-6.21.84-.21c.9-.24 1.79-.54 2.68-.89z"/></g><path d="m33.44 33.28 1.39-.7 6.67-3.33 1.74-.87c.5-.25 1.05-.38 1.61-.38.8 0 1.57.27 2.2.75.62.48 1.42 1.2 2.29 2.15l-14.5 4.15c-.3-.86-.96-1.45-1.4-1.77z" fill="#d3a06c"/><path d="m41.5 45h-.89c-.54 0-1.08-.04-1.61-.11-1.79-.24-3.49-.89-5-1.89v-4s1-1 1-3c0-.35-.06-.67-.16-.95l14.5-4.15c2.37 2.56 5.39 6.86 7.66 13.1-1.03.51-2.02.96-3 1.34v.01c-.89.35-1.78.65-2.68.89-.28.07-.56.14-.84.21-1.62.36-3.31.55-5.19.55h-2.51c-.46 0-.86-.31-.97-.76z" fill="#d3a06c"/><path d="m34.84 35.05c.1.28.16.6.16.95 0 2-1 3-1 3l-3.37-.84c.23-.33.37-.73.37-1.16 0-.83-.51-1.54-1.23-1.85l3.23-2.15s.19.09.44.28c.44.32 1.1.91 1.4 1.77z" fill="#ccd1d9"/><path d="m31 37c0 .43-.14.83-.37 1.16-.37.51-.96.84-1.63.84-1.1 0-2-.9-2-2s.9-2 2-2c.27 0 .53.05.77.15.72.31 1.23 1.02 1.23 1.85z" fill="#e6e9ed"/><path d="m38.13 2.94-.4.17c-2.8 1.12-4.88 3.5-5.62 6.41-.9-.34-1.86-.52-2.83-.52h-8.28l.1-.18c2.41-4.22 6.9-6.82 11.76-6.82h.55c1.63 0 3.24.32 4.72.94z" fill="#fcd770"/><path d="m46 15.04c0 1.44-.23 2.86-.69 4.2l-8.11-6.24-3.04-2.34c-.63-.48-1.32-.87-2.05-1.14.74-2.91 2.82-5.29 5.62-6.41l.4-.17c1.73.72 3.29 1.83 4.55 3.27 1.07 1.22 1.9 2.61 2.46 4.11s.86 3.1.86 4.72z" fill="#fcd770"/><path d="m37.2 13h-16.2-7c1.23-2.45 3.73-4 6.47-4h.53 8.28c.97 0 1.93.18 2.83.52.73.27 1.42.66 2.05 1.14z" fill="#ffeaa7"/><path d="m45.31 19.24c-.04.15-.09.3-.15.45-.54 1.48-1.35 2.87-2.39 4.08l-2.77 3.23-2-3 .55-1.11c.3-.58.45-1.23.45-1.89s-.15-1.31-.45-1.89l-.01-.04c-.33-.66-1-1.07-1.74-1.07-.51 0-1 .2-1.37.57l-1.43 1.43-1.11-1.66c-.56-.84-1.49-1.34-2.5-1.34h-9.21-.01c-.1-1.2-.17-2.53-.17-4h16.2z" fill="#656d78"/><path d="m33.26 28.65-1.27.76c-.65.38-1.39.59-2.15.59-1.71 0-3.26-1.05-3.9-2.64l-.94-2.36h-2s-1.33-2.67-1.83-8h.01 9.21c1.01 0 1.94.5 2.5 1.34l1.11 1.66 1.43-1.43c.37-.37.86-.57 1.37-.57.74 0 1.41.41 1.74 1.07l.01.04c.3.58.45 1.23.45 1.89s-.15 1.31-.45 1.89l-.55 1.11 2 3 1.5 2.25-6.67 3.33z" fill="#f0d0b4"/><path d="m22 52v5l-2.54.85c-.3.1-.62.15-.95.15h-.51-4c-1.1 0-2-.9-2-2v-4c0-1.1.9-2 2-2h4 .09c.59 0 1.17.18 1.67.5z" fill="#f0d0b4"/><path d="m18 58v2c0 .55-.22 1.05-.59 1.41-.36.37-.86.59-1.41.59-1.1 0-2-.9-2-2v-2z" fill="#969faa"/><path d="m18 45.78v4.22h-4v-4.22c.64.14 1.31.22 2 .22s1.36-.08 2-.22z" fill="#969faa"/><path d="m16 28c4.97 0 9 4.03 9 9 0 4.28-2.99 7.87-7 8.78-.64.14-1.31.22-2 .22s-1.36-.08-2-.22c-4.01-.91-7-4.5-7-8.78 0-4.97 4.03-9 9-9z" fill="#e6e9ed"/><circle cx="16" cy="37" fill="#69d6f4" r="5"/></g><g><circle cx="26" cy="21" r="1"/><path d="m58.244 44.496-.305-.838c-3.752-10.319-9.22-14.89-10.278-15.701-1.377-1.054-3.337-1.236-4.869-.472l-.95.475-.59-.885 2.279-2.658c2.236-2.61 3.469-5.94 3.469-9.378 0-3.492-1.267-6.862-3.565-9.489-2.531-2.892-6.185-4.55-10.026-4.55h-.553c-5.076 0-9.797 2.676-12.424 7.003-3.124.015-5.929 1.753-7.327 4.55l-.723 1.447h7.633c.157 7.474 2.008 11.283 2.09 11.447l.277.553h1.941l.692 1.73c.795 1.987 2.69 3.27 4.829 3.27.937 0 1.857-.255 2.662-.737l.26-.156.798 1.994-.064.032c-.027-.014-.046-.024-.053-.028l-.52-.26-3.323 2.216c-.195-.04-.397-.061-.604-.061-1.654 0-3 1.346-3 3 0 1.233.748 2.292 1.813 2.753-.617 3.161-.766 7.354-.802 9.247h-4.011c-.831 0-1.545.51-1.846 1.234l-.844-.563c-.402-.267-.847-.448-1.31-.556v-2.576c4.052-1.278 7-5.07 7-9.539 0-5.514-4.486-10-10-10s-10 4.486-10 10c0 4.469 2.948 8.261 7 9.539v2.646c-1.161.414-2 1.514-2 2.816v4c0 1.302.839 2.402 2 2.816v1.183c0 1.654 1.346 3 3 3s3-1.346 3-3v-1.039c.265-.032.526-.082.778-.167l1.664-.555c.368.46.926.761 1.558.761h4v4h28v-16.991c.793-.33 1.6-.691 2.447-1.115zm-50.244-7.496c0-4.411 3.589-8 8-8s8 3.589 8 8-3.589 8-8 8-8-3.589-8-8zm8 10c.338 0 .671-.018 1-.051v2.051h-2v-2.051c.329.033.662.051 1 .051zm0 14c-.552 0-1-.448-1-1v-1h2v1c0 .552-.448 1-1 1zm3.144-4.103c-.203.069-.415.103-.631.103h-4.513c-.552 0-1-.448-1-1v-4c0-.552.448-1 1-1h4.092c.396 0 .779.116 1.109.336l1.799 1.199v3.744zm24.543-27.623c.872-.438 1.969-.335 2.758.271.318.243.655.53 1.008.857l-12.093 3.455c-.069-.108-.141-.211-.216-.309zm-1.758-22.408c1.98 2.263 3.071 5.165 3.071 8.173 0 .845-.096 1.68-.264 2.497l-9.969-7.67c-.449-.345-.932-.64-1.435-.893.815-2.232 2.548-4.047 4.778-4.94l.011-.004c1.438.659 2.741 1.618 3.808 2.837zm-9.073-3.866h.553c.692 0 1.375.077 2.045.2-1.825 1.223-3.232 2.996-3.994 5.071-.711-.178-1.444-.271-2.181-.271h-6.435c2.35-3.115 6.057-5 10.012-5zm-12.384 7h8.808c1.535 0 3.051.516 4.268 1.452l.711.548h-18.368c1.16-1.262 2.803-2 4.581-2zm16.387 4 7.266 5.59c-.503 1.274-1.208 2.47-2.112 3.526l-1.913 2.231-.946-1.419.293-.586c.362-.724.553-1.533.553-2.342s-.191-1.618-.57-2.376c-.501-1.002-1.508-1.624-2.627-1.624-.773 0-1.53.313-2.077.86l-.57.57-.433-.649c-.744-1.115-1.988-1.781-3.328-1.781h-8.282c-.044-.632-.073-1.299-.089-2zm-2.356 15.065 2.012-1.207-1.029-1.715-4.008 2.405c-.495.296-1.059.452-1.634.452-1.316 0-2.482-.79-2.971-2.013l-1.196-2.987h-2.013c-.344-.902-.984-2.927-1.362-6h8.093c.67 0 1.292.333 1.664.891l1.786 2.679 2.295-2.295c.427-.429 1.218-.321 1.519.278.223.447.341.947.341 1.447s-.118 1-.342 1.447l-.812 1.625 3.194 4.79-4.681 2.341zm-1.5 5.135c.426.34.997.954.997 1.8 0 .87-.227 1.489-.423 1.863l-1.623-.405c.023-.15.046-.301.046-.458 0-.654-.216-1.256-.573-1.749zm-4.003 1.8c.552 0 1 .448 1 1s-.448 1-1 1-1-.448-1-1 .448-1 1-1zm.829 3.869c.417-.121.793-.327 1.114-.602l2.057.514v3.754l.445.297c1.394.929 2.938 1.565 4.555 1.897v3.271h-8.987c.039-1.91.195-6.163.816-9.131zm-6.829 11.131h19v-2h-2v-3.022c.202.009.403.022.605.022h.114l.121.484c.223.893 1.021 1.516 1.941 1.516h2.511c1.192 0 2.326-.081 3.442-.233l-2.163 4.488c-.852 1.914-2.391 3.396-4.334 4.174-.948.379-1.946.571-2.968.571h-16.269zm30 10h-24v-2h10.269c1.278 0 2.526-.24 3.71-.714 2.431-.972 4.355-2.825 5.406-5.19l2.793-5.795c.603-.151 1.21-.33 1.822-.535zm-7.708-15h-2.512l-1.811-7.242-1.939.484 1.183 4.731c-1.845-.066-3.631-.575-5.213-1.524v-3.098c.386-.53 1-1.64 1-3.351 0-.083-.009-.161-.014-.242l13.04-3.726c2.24 2.552 4.773 6.43 6.718 11.467-3.775 1.793-6.773 2.501-10.452 2.501z"/><path d="m22 37c0-3.309-2.691-6-6-6s-6 2.691-6 6 2.691 6 6 6 6-2.691 6-6zm-10 0c0-2.206 1.794-4 4-4s4 1.794 4 4-1.794 4-4 4-4-1.794-4-4z"/></g></g></svg>