<svg id="Capa_1" enable-background="new 0 0 512 512" height="512" viewBox="0 0 512 512" width="512" xmlns="http://www.w3.org/2000/svg"><g><g><path d="m160.924 64.006c-66.525 0-132.242-26.598-153.672-36.137-3.412-1.519-7.251.984-7.251 4.719l-.001 190.478c0 50.581 23.55 98.455 64.067 128.734 24.681 18.445 56.794 36.958 96.857 49.725 40.024-12.755 72.114-31.245 96.785-49.672 40.55-30.286 64.138-78.175 64.138-128.787v-190.479c0-3.735-3.839-6.238-7.251-4.719-21.431 9.54-87.147 36.138-153.672 36.138zm-113.075 71.293c11.447-5.341 43.243-15.191 72.607 21.464 2.029 2.533 1.245 6.312-1.638 7.802-14.057 7.27-52.805 22.042-73.444-22.412-1.196-2.577-.1-5.653 2.475-6.854zm142.305 140.357c-9.318-2.284-19.196-3.743-29.231-3.743-31.987 0-62.393 14.819-78.092 23.951-4.122 2.398-9.018-1.614-7.472-6.125 7.62-22.231 29.542-64.891 85.564-64.891 11.014 0 20.702 1.658 29.231 4.476z" fill="#ff656b"/><path d="m314.59 27.87c-2.966 1.32-6.78 2.967-11.324 4.824v84.22c0 3.32-3.091 5.78-6.326 5.034-51.498-11.868-100.165-32.5-118.1-40.533-3.415-1.53-7.266.97-7.266 4.712v21.444 117.834c6.301.657 12.562 1.928 18.581 3.918v46.333c-6.105-1.496-12.323-2.6-18.581-3.208v15.097 18.581c0 25.971 6.026 56.591 23.111 82.573 24.801-10.998 45.783-23.96 63.094-36.896 40.517-30.279 64.068-78.154 64.068-128.735v-190.482c-.001-3.737-3.842-6.236-7.257-4.716z" fill="#ff3e4c"/><path d="m351.077 147.063c-66.525 0-132.242-26.598-153.672-36.137-3.412-1.519-7.251.984-7.251 4.719v190.48c0 50.64 23.622 98.541 64.202 128.834 24.663 18.411 56.732 36.88 96.721 49.624 39.915-12.72 71.939-31.144 96.584-49.521 40.645-30.308 64.339-78.237 64.339-128.937v-190.48c0-3.735-3.839-6.238-7.251-4.719-21.43 9.539-87.147 36.137-153.672 36.137zm-113.075 71.294c11.447-5.342 43.243-15.191 72.607 21.464 2.029 2.533 1.245 6.312-1.638 7.802-14.057 7.27-52.805 22.042-73.444-22.412-1.196-2.577-.1-5.653 2.475-6.854zm113.075 176.861c-56.022 0-77.944-42.66-85.564-64.891-1.546-4.511 3.35-8.523 7.472-6.125 15.7 9.132 46.105 23.951 78.092 23.951s62.393-14.819 78.093-23.951c4.122-2.398 9.018 1.614 7.472 6.125-7.621 22.232-29.542 64.891-85.565 64.891zm40.467-155.398c29.364-36.654 61.161-26.805 72.607-21.464 2.575 1.202 3.671 4.277 2.474 6.854-20.639 44.453-59.387 29.682-73.444 22.412-2.881-1.49-3.666-5.269-1.637-7.802z" fill="#ffdc00"/><g><path d="m493.419 115.751v190.374c0 50.581-23.551 98.456-64.068 128.735-22.739 16.993-51.804 34.033-87.565 46.595 3.054 1.073 6.139 2.124 9.29 3.129 39.915-12.72 71.939-31.144 96.583-49.521 40.646-30.309 64.341-78.237 64.341-128.938v-190.481c0-3.737-3.842-6.236-7.256-4.717-2.967 1.321-6.78 2.967-11.325 4.824z" fill="#ffbf00"/></g></g></g></svg>