<svg height="512pt" viewBox="0 0 512 512.002" width="512pt" xmlns="http://www.w3.org/2000/svg"><path d="m256 17.277344v477.449218c0 9.539063-7.734375 17.273438-17.273438 17.273438h-221.449218c-9.539063 0-17.277344-7.734375-17.277344-17.273438v-221.449218c0-.617188.03125-1.226563.105469-1.824219.90625-8.683594 8.25-15.453125 17.171875-15.453125-9.539063 0-17.277344-7.734375-17.277344-17.273438v-221.449218c0-9.539063 7.738281-17.277344 17.277344-17.277344h221.449218c9.539063 0 17.273438 7.738281 17.273438 17.277344zm0 0" fill="#be7560"/><path d="m256 472.566406v22.160156c0 9.539063-7.734375 17.273438-17.273438 17.273438h-221.449218c-9.539063 0-17.277344-7.734375-17.277344-17.273438v-22.160156c0 9.539063 7.738281 17.277344 17.277344 17.277344h221.449218c9.539063 0 17.273438-7.738281 17.273438-17.277344zm0 0" fill="#a86552"/><path d="m256 17.277344v199.277344c0 9.550781-7.734375 17.285156-17.273438 17.285156h-221.449218c-7.191406 0-13.351563-4.398438-15.957032-10.652344-.84375-2.039062-1.320312-4.285156-1.320312-6.632812v-199.277344c0-9.539063 7.738281-17.277344 17.277344-17.277344h221.449218c9.539063 0 17.273438 7.738281 17.273438 17.277344zm0 0" fill="#cf8671"/><path d="m512 20.605469v470.792969c0 11.382812-9.21875 20.601562-20.601562 20.601562h-214.792969c-11.382813 0-20.605469-9.21875-20.605469-20.601562v-470.792969c0-11.382813 9.222656-20.605469 20.605469-20.605469h214.792969c11.382812 0 20.601562 9.222656 20.601562 20.605469zm0 0" fill="#a86552"/><path d="m512 20.605469v470.792969c0 11.382812-9.21875 20.601562-20.601562 20.601562h-24.726563c11.386719 0 20.605469-9.21875 20.605469-20.601562v-470.792969c0-11.382813-9.21875-20.605469-20.605469-20.605469h24.726563c11.382812 0 20.601562 9.222656 20.601562 20.605469zm0 0" fill="#be7560"/><path d="m512 270.886719v15.667969c-8.375 1.96875-16.625 4.328124-24.722656 7.046874-2.84375.960938-5.667969 1.957032-8.46875 3-.269532.125-.546875.238282-.835938.320313-39.546875 14.90625-75.210937 38.734375-104.550781 70.101563-11.117187 11.886718-21.078125 24.601562-29.835937 38.015624-.132813.234376-.277344.464844-.433594.679688-.03125.050781-.058594.082031-.089844.125-20.789062 32.046875-34.699219 68.050781-40.804688 106.160156h-15.558593c0-.402344.03125-.792968.09375-1.195312 3.027343-19.421875 7.984375-38.324219 14.730469-56.496094h-10.835938c-4.273438 0-7.726562-3.460938-7.726562-7.726562 0-2.132813.867187-4.058594 2.257812-5.460938 1.398438-1.398438 3.335938-2.265625 5.46875-2.265625h17.082031c5.355469-12.21875 11.546875-24.0625 18.550781-35.457031l-15.335937-10.714844c-3.492187-2.441406-4.347656-7.253906-1.90625-10.753906 2.441406-3.503906 7.25-4.359375 10.753906-1.917969l14.925781 10.425781c7.160157-10.375 15.019532-20.324218 23.550782-29.804687l-15.566406-15.554688c-3.015626-3.019531-3.015626-7.910156 0-10.929687 3.019531-3.019532 7.914062-3.019532 10.929687 0l15.277344 15.277344c6.679687-6.6875 13.628906-13.019532 20.851562-18.984376l-10.113281-14.796874c-2.414062-3.519532-1.503906-8.332032 2.015625-10.734376 3.523437-2.410156 8.324219-1.511718 10.734375 2.011719l9.5625 13.980469c8.550781-6.335938 17.429688-12.179688 26.589844-17.523438l-6.59375-13.414062c-1.875-3.820312-.300782-8.457031 3.53125-10.332031 3.824218-1.886719 8.460937-.308594 10.34375 3.523437l6.273437 12.785156c8.40625-4.316406 17.007813-8.230468 25.816407-11.714843v-18.265625c0-4.273438 3.453124-7.726563 7.726562-7.726563 4.265625 0 7.726562 3.453125 7.726562 7.726563v12.640625c1.289063-.421875 2.574219-.84375 3.863282-1.246094 7.550781-2.398437 15.214844-4.492187 23.003906-6.273437.578125-.136719 1.152344-.199219 1.71875-.199219zm0 0" fill="#915040"/><path d="m512 375.367188v17.390624c-8.609375 3.554688-16.871094 7.726563-24.722656 12.472657-39.40625 23.789062-68.703125 61.832031-81.3125 106.769531h-16.761719c13.835937-53.980469 49.636719-99.277344 98.074219-125.402344 7.871094-4.257812 16.070312-7.996094 24.570312-11.179687.050782-.019531.101563-.039063.152344-.050781zm0 0" fill="#915040"/><path d="m512 320.367188v16.65625c-8.425781 2.585937-16.679688 5.648437-24.722656 9.148437-29.691406 12.949219-56.503906 32.027344-78.714844 56.15625-28.507812 30.957031-48.058594 68.796875-56.722656 109.671875h-16.308594c8.890625-44.957031 30.0625-86.585938 61.273438-120.488281 25.300781-27.484375 56.207031-48.832031 90.472656-62.644531 8.066406-3.257813 16.316406-6.101563 24.722656-8.5zm0 0" fill="#915040"/><path d="m262.695312 256v15.453125h-262.589843c.90625-8.683594 8.25-15.453125 17.171875-15.453125zm0 0" fill="#a86552"/><g fill="#915040"><path d="m63.355469 482.125c-14.484375 0-26.269531-11.785156-26.269531-26.269531v-157.550781c0-4.269532 3.460937-7.726563 7.726562-7.726563s7.726562 3.460937 7.726562 7.726563v157.550781c0 5.964843 4.851563 10.816406 10.816407 10.816406 5.964843 0 10.816406-4.851563 10.816406-10.816406v-131.28125c0-18.746094 15.253906-33.996094 33.996094-33.996094 18.746093 0 33.996093 15.25 33.996093 33.996094v61.777343c0 4.269532-3.457031 7.726563-7.726562 7.726563-4.265625 0-7.722656-3.460937-7.722656-7.726563v-61.777343c0-10.222657-8.320313-18.542969-18.542969-18.542969-10.226563 0-18.542969 8.320312-18.542969 18.542969v131.28125c0 14.484375-11.785156 26.269531-26.273437 26.269531zm0 0"/><path d="m134.492188 426.496094h-.105469c-4.269531 0-7.726563-3.460938-7.726563-7.726563s3.457032-7.726562 7.726563-7.726562h.105469c4.269531 0 7.726562 3.460937 7.726562 7.726562s-3.457031 7.726563-7.726562 7.726563zm0 0"/><path d="m134.492188 454.3125c-.023438 0-.046876 0-.070313 0l-.109375-.003906c-4.265625-.039063-7.691406-3.53125-7.652344-7.796875.039063-4.242188 3.492188-7.65625 7.722656-7.65625h.074219l.109375.003906c4.265625.039063 7.691406 3.53125 7.652344 7.796875-.039062 4.242188-3.492188 7.65625-7.726562 7.65625zm0 0"/><path d="m134.492188 482.125h-.105469c-4.269531 0-7.726563-3.457031-7.726563-7.726562 0-4.265626 3.457032-7.722657 7.726563-7.722657h.105469c4.269531 0 7.726562 3.457031 7.726562 7.722657 0 4.269531-3.457031 7.726562-7.726562 7.726562zm0 0"/><path d="m171.527344 426.496094h-.109375c-4.265625 0-7.726563-3.460938-7.726563-7.726563s3.460938-7.726562 7.726563-7.726562h.109375c4.265625 0 7.726562 3.460937 7.726562 7.726562s-3.460937 7.726563-7.726562 7.726563zm0 0"/><path d="m171.527344 454.3125c-.023438 0-.046875 0-.074219 0l-.105469-.003906c-4.269531-.039063-7.695312-3.53125-7.652344-7.796875.039063-4.242188 3.488282-7.65625 7.722657-7.65625h.074219l.105468.003906c4.269532.039063 7.695313 3.53125 7.65625 7.796875-.042968 4.242188-3.492187 7.65625-7.726562 7.65625zm0 0"/><path d="m171.527344 482.125h-.109375c-4.265625 0-7.726563-3.457031-7.726563-7.726562 0-4.265626 3.460938-7.722657 7.726563-7.722657h.109375c4.265625 0 7.726562 3.457031 7.726562 7.722657 0 4.269531-3.460937 7.726562-7.726562 7.726562zm0 0"/><path d="m208.558594 426.496094h-.105469c-4.269531 0-7.726563-3.460938-7.726563-7.726563s3.457032-7.726562 7.726563-7.726562h.105469c4.265625 0 7.726562 3.460937 7.726562 7.726562s-3.460937 7.726563-7.726562 7.726563zm0 0"/><path d="m208.5625 454.3125c-.027344 0-.050781 0-.074219 0l-.109375-.003906c-4.265625-.039063-7.691406-3.53125-7.652344-7.796875.039063-4.242188 3.492188-7.65625 7.722657-7.65625h.074219l.109374.003906c4.265626.039063 7.691407 3.53125 7.652344 7.796875-.039062 4.242188-3.492187 7.65625-7.722656 7.65625zm0 0"/><path d="m208.558594 482.125h-.105469c-4.269531 0-7.726563-3.457031-7.726563-7.726562 0-4.265626 3.457032-7.722657 7.726563-7.722657h.105469c4.265625 0 7.726562 3.457031 7.726562 7.722657 0 4.269531-3.460937 7.726562-7.726562 7.726562zm0 0"/><path d="m200.027344 312.050781h-24.035156c-4.269532 0-7.726563-3.460937-7.726563-7.726562 0-4.269531 3.457031-7.726563 7.726563-7.726563h24.035156c4.269531 0 7.726562 3.457032 7.726562 7.726563 0 4.265625-3.457031 7.726562-7.726562 7.726562zm0 0"/><path d="m200.027344 339.390625h-24.035156c-4.269532 0-7.726563-3.457031-7.726563-7.726563 0-4.265624 3.457031-7.722656 7.726563-7.722656h24.035156c4.269531 0 7.726562 3.457032 7.726562 7.722656 0 4.269532-3.457031 7.726563-7.726562 7.726563zm0 0"/><path d="m200.027344 366.734375h-24.035156c-4.269532 0-7.726563-3.457031-7.726563-7.726563 0-4.265624 3.457031-7.726562 7.726563-7.726562h24.035156c4.269531 0 7.726562 3.460938 7.726562 7.726562 0 4.269532-3.457031 7.726563-7.726562 7.726563zm0 0"/><path d="m200.027344 394.078125h-24.035156c-4.269532 0-7.726563-3.460937-7.726563-7.726563 0-4.265624 3.457031-7.726562 7.726563-7.726562h24.035156c4.269531 0 7.726562 3.460938 7.726562 7.726562 0 4.265626-3.457031 7.726563-7.726562 7.726563zm0 0"/><path d="m128 123.351562c29.746094 0 56.800781-16.375 70.613281-42.730468 1.175781-2.242188 1.175781-4.925782 0-7.171875-13.8125-26.359375-40.871093-42.738281-70.613281-42.738281-29.738281 0-56.796875 16.378906-70.613281 42.738281-1.175781 2.246093-1.175781 4.929687 0 7.171875 13.8125 26.355468 40.871093 42.730468 70.613281 42.730468zm0-77.1875c22.597656 0 43.273438 11.726563 54.898438 30.871094-11.625 19.136719-32.300782 30.863282-54.898438 30.863282s-43.273438-11.726563-54.898438-30.863282c11.628907-19.144531 32.304688-30.871094 54.898438-30.871094zm0 0"/><path d="m128 104.054688c12.199219 0 22.121094-9.925782 22.121094-22.121094 0-12.199219-9.921875-22.121094-22.121094-22.121094-12.195312 0-22.121094 9.921875-22.121094 22.121094 0 12.199218 9.925782 22.121094 22.121094 22.121094zm0-28.789063c3.679688 0 6.671875 2.992187 6.671875 6.667969 0 3.675781-2.992187 6.667968-6.671875 6.667968-3.675781 0-6.667969-2.992187-6.667969-6.667968 0-3.675782 2.992188-6.667969 6.667969-6.667969zm0 0"/><path d="m128.011719 131.378906c-4.253907 0-7.710938 3.445313-7.726563 7.703125l-.027344 10.15625c-.011718 4.265625 3.4375 7.734375 7.703126 7.746094h.023437c4.257813 0 7.714844-3.445313 7.726563-7.703125l.027343-10.152344c.015625-4.269531-3.433593-7.738281-7.703125-7.75-.007812 0-.015625 0-.023437 0zm0 0"/><path d="m148.429688 128.074219c-3.703126 2.117187-4.988282 6.839843-2.867188 10.542969l5.039062 8.808593c1.425782 2.492188 4.03125 3.890625 6.714844 3.890625 1.300782 0 2.617188-.332031 3.828125-1.023437 3.703125-2.117188 4.988281-6.839844 2.867188-10.542969l-5.039063-8.808594c-2.121094-3.703125-6.839844-4.984375-10.542968-2.867187zm0 0"/><path d="m97.101562 130.761719-5.089843 8.78125c-2.140625 3.691406-.882813 8.417969 2.804687 10.558593 1.222656.707032 2.554688 1.042969 3.871094 1.042969 2.664062 0 5.257812-1.378906 6.691406-3.851562l5.089844-8.777344c2.140625-3.691406.886719-8.421875-2.804688-10.5625-3.691406-2.140625-8.421874-.882813-10.5625 2.808594zm0 0"/><path d="m101.421875 206.945312 32.136719-19.960937h49.460937c11.671875 0 21.164063-9.492187 21.164063-21.160156 0-4.269531-3.460938-7.726563-7.726563-7.726563s-7.726562 3.460938-7.726562 7.726563c0 3.148437-2.558594 5.707031-5.707031 5.707031h-110.042969c-3.148438 0-5.707031-2.558594-5.707031-5.707031 0-4.269531-3.460938-7.726563-7.726563-7.726563-4.269531 0-7.726563 3.460938-7.726563 7.726563 0 11.667969 9.492188 21.160156 21.160157 21.160156h31.292969l-11.003907 6.835937c-7.46875 4.640626-10.867187 13.4375-8.457031 21.894532 2.414062 8.453125 9.941406 14.136718 18.734375 14.136718 4.265625 0 7.726563-3.460937 7.726563-7.726562 0-4.269531-3.460938-7.726562-7.726563-7.726562-2.742187 0-3.621094-2.042969-3.875-2.925782-.25-.878906-.582031-3.078125 1.75-4.527344zm0 0"/><path d="m227.15625 193.535156h-.105469c-4.269531 0-7.726562 3.457032-7.726562 7.726563 0 4.265625 3.457031 7.722656 7.726562 7.722656h.105469c4.265625 0 7.726562-3.457031 7.726562-7.722656 0-4.269531-3.460937-7.726563-7.726562-7.726563zm0 0"/><path d="m30.226562 76.269531h-.109374c-4.265626 0-7.722657 3.457031-7.722657 7.722657 0 4.269531 3.457031 7.726562 7.722657 7.726562h.109374c4.265626 0 7.726563-3.457031 7.726563-7.726562 0-4.265626-3.460937-7.722657-7.726563-7.722657zm0 0"/></g><path d="m204.597656 199.953125h-.105468c-4.265626 0-7.726563 3.457031-7.726563 7.726563 0 4.265624 3.460937 7.726562 7.726563 7.726562h.105468c4.269532 0 7.726563-3.460938 7.726563-7.726562 0-4.269532-3.457031-7.726563-7.726563-7.726563zm0 0" fill="#be7560"/><path d="m290.738281 53.570312h-.109375c-4.265625 0-7.726562-3.460937-7.726562-7.726562s3.460937-7.726562 7.726562-7.726562h.109375c4.265625 0 7.726563 3.460937 7.726563 7.726562s-3.460938 7.726562-7.726563 7.726562zm0 0" fill="#cf8671"/><path d="m466.726562 215.40625h-.109374c-4.265626 0-7.722657-3.460938-7.722657-7.726562 0-4.269532 3.457031-7.726563 7.722657-7.726563h.109374c4.265626 0 7.726563 3.457031 7.726563 7.726563 0 4.265624-3.460937 7.726562-7.726563 7.726562zm0 0" fill="#cf8671"/><path d="m154.839844 294.289062h-.105469c-4.269531 0-7.726563-3.457031-7.726563-7.726562 0-4.265625 3.457032-7.722656 7.726563-7.722656h.105469c4.265625 0 7.726562 3.457031 7.726562 7.722656 0 4.269531-3.460937 7.726562-7.726562 7.726562zm0 0" fill="#cf8671"/><path d="m25.238281 482.125h-.105469c-4.265624 0-7.726562-3.457031-7.726562-7.726562 0-4.265626 3.460938-7.722657 7.726562-7.722657h.105469c4.269531 0 7.726563 3.457031 7.726563 7.722657.003906 4.269531-3.457032 7.726562-7.726563 7.726562zm0 0" fill="#915040"/><path d="m475.730469 56.601562c0-15.378906-8.523438-27.84375-19.039063-27.84375-10.511718 0-19.035156 12.464844-19.035156 27.84375 0 15.375 8.523438 27.839844 19.035156 27.839844 10.515625 0 19.039063-12.464844 19.039063-27.839844zm0 0" fill="#915040"/><path d="m475.730469 56.601562c0 15.378907-8.519531 27.839844-19.039063 27.839844-2.765625 0-5.394531-.863281-7.765625-2.414062 6.648438-4.339844 11.277344-14.09375 11.277344-25.425782 0-11.335937-4.628906-21.089843-11.277344-25.425781 2.371094-1.554687 5-2.417969 7.765625-2.417969 10.519532 0 19.039063 12.46875 19.039063 27.84375zm0 0" fill="#7c3c2f"/><path d="m286.511719 347.238281c-4.269531 0-7.726563-3.460937-7.726563-7.726562v-239.195313c0-4.265625 3.457032-7.722656 7.726563-7.722656 4.265625 0 7.722656 3.457031 7.722656 7.722656v239.195313c0 4.269531-3.457031 7.726562-7.722656 7.726562zm0 0" fill="#915040"/><path d="m354.625 301.910156c-4.265625 0-7.726562-3.460937-7.726562-7.726562v-193.867188c0-4.265625 3.460937-7.722656 7.726562-7.722656s7.726562 3.457031 7.726562 7.722656v193.867188c0 4.269531-3.460937 7.726562-7.726562 7.726562zm0 0" fill="#915040"/><path d="m422.738281 268.203125c-4.265625 0-7.722656-3.460937-7.722656-7.726563v-160.160156c0-4.265625 3.457031-7.722656 7.722656-7.722656 4.269531 0 7.726563 3.457031 7.726563 7.722656v160.160156c0 4.265626-3.457032 7.726563-7.726563 7.726563zm0 0" fill="#915040"/><path d="m325.332031 153.03125c-1.976562 0-3.957031-.753906-5.464843-2.265625l-13.355469-13.355469c-1.449219-1.449218-2.265625-3.414062-2.265625-5.464844v-15.867187c0-4.265625 3.460937-7.722656 7.726562-7.722656h15.109375c4.269531 0 7.726563 3.457031 7.726563 7.722656 0 4.269531-3.457032 7.726563-7.726563 7.726563h-7.382812v4.941406l11.097656 11.097656c3.015625 3.015625 3.015625 7.90625 0 10.925781-1.511719 1.507813-3.488281 2.261719-5.464844 2.261719zm0 0" fill="#7c3c2f"/><path d="m325.21875 199.550781c-2.007812 0-3.984375-.785156-5.464844-2.265625l-11.476562-11.476562c-3.015625-3.019532-3.015625-7.910156 0-10.925782 2.496094-2.496093 6.277344-2.929687 9.214844-1.296874v-4.71875c0-4.265626 3.457031-7.722657 7.726562-7.722657 4.265625 0 7.726562 3.457031 7.726562 7.722657v22.953124c0 3.125-1.882812 5.945313-4.769531 7.140626-.957031.394531-1.960937.589843-2.957031.589843zm0 0" fill="#7c3c2f"/><path d="m319.871094 246.175781c-4.265625 0-7.726563-3.460937-7.726563-7.726562v-20.863281c0-4.269532 3.460938-7.726563 7.726563-7.726563 4.269531 0 7.726562 3.457031 7.726562 7.726563v20.863281c0 4.265625-3.457031 7.726562-7.726562 7.726562zm0 0" fill="#7c3c2f"/><path d="m376.523438 143.039062c-1.496094 0-3.011719-.4375-4.34375-1.34375-3.527344-2.40625-4.4375-7.210937-2.03125-10.734374l11.589843-17c1.382813-2.03125 3.65625-3.285157 6.113281-3.367188 2.457032-.09375 4.808594 1 6.332032 2.929688l13.425781 17c2.644531 3.347656 2.074219 8.207031-1.273437 10.851562-3.351563 2.644531-8.207032 2.074219-10.855469-1.273438l-6.902344-8.742187-5.660156 8.304687c-1.496094 2.191407-3.925781 3.375-6.394531 3.375zm0 0" fill="#7c3c2f"/><path d="m307.359375 294.839844c-1.5 0-3.015625-.4375-4.347656-1.34375-3.523438-2.402344-4.433594-7.210938-2.03125-10.734375l11.589843-17c1.386719-2.03125 3.65625-3.28125 6.113282-3.367188 2.457031-.097656 4.8125 1 6.335937 2.933594l13.421875 16.996094c2.648438 3.351562 2.074219 8.207031-1.273437 10.851562-3.351563 2.644531-8.207031 2.074219-10.851563-1.273437l-6.902344-8.742188-5.664062 8.304688c-1.496094 2.195312-3.921875 3.375-6.390625 3.375zm0 0" fill="#7c3c2f"/><path d="m380.136719 206.90625c-4.265625 0-7.726563-3.457031-7.726563-7.722656v-32.375c0-3.007813 1.75-5.746094 4.480469-7.007813 2.734375-1.269531 5.953125-.828125 8.246094 1.117188l17 14.425781c3.253906 2.757812 3.652343 7.636719.890625 10.886719-2.761719 3.253906-7.636719 3.65625-10.890625.894531l-4.273438-3.628906v15.6875c0 4.265625-3.457031 7.722656-7.726562 7.722656zm0 0" fill="#7c3c2f"/><path d="m390.558594 253.78125c-4.269532 0-7.726563-3.457031-7.726563-7.726562v-18.039063c0-4.265625 3.457031-7.726563 7.726563-7.726563 4.265625 0 7.722656 3.460938 7.722656 7.726563v18.039063c.003906 4.269531-3.457031 7.726562-7.722656 7.726562zm0 0" fill="#7c3c2f"/><path d="m404.242188 28.929688c-1.328126 2.769531-4.089844 4.375-6.972657 4.375-1.113281 0-2.253906-.234376-3.335937-.761719l-15.195313-7.304688-6.039062 9.675781c-1.460938 2.335938-3.984375 3.636719-6.5625 3.636719-1.390625 0-2.8125-.382812-4.078125-1.175781-3.625-2.265625-4.730469-7.027344-2.460938-10.652344l7.117188-11.402344-9.742188-15.289062c-.011718-.0117188-.011718-.0195312-.023437-.03125h18.328125l5.902344 9.273438 19.449218 9.34375c3.84375 1.855468 5.460938 6.46875 3.613282 10.3125zm0 0" fill="#915040"/><path d="m36.839844 218.019531c-1.484375 2.253907-3.945313 3.46875-6.457032 3.46875-1.453124 0-2.9375-.410156-4.246093-1.273437l-6.203125-4.09375-.265625.433594c-1.070313 1.679687-2.761719 2.875-4.699219 3.347656l-13.648438 3.289062c-.84375-2.042968-1.320312-4.289062-1.320312-6.636718v-8.941407l8.324219-2.007812 8.003906-12.519531c2.300781-3.59375 7.078125-4.644532 10.675781-2.347657 3.59375 2.296875 4.644532 7.078125 2.347656 10.671875l-1.089843 1.691406 6.386719 4.210938c3.5625 2.351562 4.539062 7.140625 2.191406 10.707031zm0 0" fill="#be7560"/><path d="m483.414062 451.21875v25.980469c0 3.351562-2.164062 6.316406-5.347656 7.347656l-18.265625 5.941406v21.511719h-15.453125v-25.300781l-4.675781-9.363281c-1.90625-3.8125-.363281-8.457032 3.460937-10.363282 3.8125-1.90625 8.457032-.363281 10.363282 3.460938l2.515625 5.039062 11.949219-3.886718v-20.367188c0-4.265625 3.449218-7.726562 7.726562-7.726562 4.265625 0 7.726562 3.460937 7.726562 7.726562zm0 0" fill="#915040"/><path d="m512 270.886719v15.667969c-8.375 1.96875-16.625 4.328124-24.722656 7.046874v-16.246093c7.550781-2.398438 15.214844-4.492188 23.003906-6.273438.578125-.132812 1.152344-.195312 1.71875-.195312zm0 0" fill="#a86552"/><path d="m487.277344 328.867188c8.066406-3.257813 16.316406-6.101563 24.722656-8.5v16.65625c-8.425781 2.585937-16.679688 5.648437-24.722656 9.148437zm0 0" fill="#a86552"/><path d="m511.847656 375.421875c.050782-.023437.101563-.042969.152344-.054687v17.390624c-8.609375 3.554688-16.871094 7.726563-24.722656 12.476563v-18.636719c7.871094-4.253906 16.070312-7.996094 24.570312-11.175781zm0 0" fill="#a86552"/></svg>