<svg id="Capa_1" enable-background="new 0 0 512 512" height="512" viewBox="0 0 512 512" width="512" xmlns="http://www.w3.org/2000/svg"><g fill="#daeaef"><path d="m256 178.589c-4.267 0-7.726-3.459-7.726-7.726v-65.563c0-4.267 3.459-7.726 7.726-7.726s7.726 3.459 7.726 7.726v65.563c0 4.267-3.459 7.726-7.726 7.726z"/><path d="m389.114 263.726h-45.696c-4.267 0-7.726-3.459-7.726-7.726s3.459-7.726 7.726-7.726h45.696c4.267 0 7.726 3.459 7.726 7.726.001 4.267-3.459 7.726-7.726 7.726z"/><path d="m169.465 263.726h-113.468c-4.267 0-7.726-3.459-7.726-7.726s3.459-7.726 7.726-7.726h113.467c4.267 0 7.726 3.459 7.726 7.726.001 4.267-3.458 7.726-7.725 7.726z"/><path d="m256 416.341c-4.267 0-7.726-3.459-7.726-7.726v-68.117c0-4.267 3.459-7.726 7.726-7.726s7.726 3.459 7.726 7.726v68.117c0 4.266-3.459 7.726-7.726 7.726z"/></g><circle cx="93.138" cy="93.138" fill="#b9ea6a" r="62.439"/><path d="m122.786 38.177c4.768 8.821 7.478 18.918 7.478 29.648 0 34.484-27.955 62.439-62.439 62.439-10.731 0-20.828-2.709-29.648-7.478 10.555 19.525 31.208 32.791 54.961 32.791 34.484 0 62.439-27.955 62.439-62.439 0-23.753-13.265-44.406-32.791-54.961z" fill="#95d528"/><path d="m51.653 349.288h190.899v31.219h-190.899z" fill="#daeaef" transform="matrix(.707 -.707 .707 .707 -214.936 210.893)"/><circle cx="52.033" cy="459.967" fill="#fce25c" r="52.033"/><path d="m76.739 414.166c3.974 7.35 6.231 15.765 6.231 24.707 0 28.737-23.296 52.033-52.033 52.033-8.942 0-17.356-2.258-24.707-6.231 8.797 16.27 26.008 27.325 45.803 27.325 28.737 0 52.033-23.296 52.033-52.033-.001-19.794-11.056-37.005-27.327-45.801z" fill="#fbd307"/><path d="m297.404 192.52 114.472-114.471 22.075 22.075-114.471 114.472c-6.096 6.096-15.979 6.096-22.075 0-6.096-6.096-6.096-15.98-.001-22.076z" fill="#daeaef"/><circle cx="439.154" cy="72.846" fill="#fce25c" r="72.846"/><path d="m473.744 8.724c5.563 10.291 8.724 22.07 8.724 34.59 0 40.232-32.614 72.846-72.846 72.846-12.519 0-24.299-3.161-34.59-8.724 12.314 22.78 36.409 38.256 64.122 38.256 40.231 0 72.846-32.614 72.846-72.846 0-27.713-15.476-51.808-38.256-64.122z" fill="#fbd307"/><path d="m189.808 211.883-68.794-68.794c-6.096-6.096-6.096-15.979 0-22.075 6.096-6.096 15.979-6.096 22.075 0l68.794 68.794z" fill="#daeaef"/><circle cx="256" cy="256" fill="#fc8086" r="93.659"/><path d="m304.109 175.631c8.436 14.062 13.289 30.518 13.289 48.109 0 51.726-41.932 93.659-93.659 93.659-17.591 0-34.047-4.854-48.109-13.289 16.369 27.286 46.234 45.55 80.369 45.55 51.726 0 93.659-41.932 93.659-93.659.001-34.136-18.263-64.002-45.549-80.37z" fill="#fb636f"/><path d="m322.602 300.526 62.439 62.439-22.075 22.075-62.439-62.439c-6.096-6.096-6.096-15.979 0-22.075 6.095-6.095 15.979-6.095 22.075 0z" fill="#daeaef"/><circle cx="421.463" cy="421.463" fill="#97e4f9" r="72.846"/><path d="m456.053 357.342c5.563 10.291 8.724 22.07 8.724 34.59 0 40.232-32.614 72.846-72.846 72.846-12.519 0-24.299-3.161-34.59-8.724 12.314 22.78 36.409 38.256 64.122 38.256 40.231 0 72.846-32.614 72.846-72.846 0-27.713-15.476-51.808-38.256-64.122z" fill="#0acefa"/><circle cx="256" cy="79.089" fill="#97e4f9" r="31.22"/><circle cx="412.098" cy="256" fill="#97e4f9" r="31.22"/><circle cx="31.22" cy="256" fill="#97e4f9" r="31.22"/><circle cx="256" cy="432.911" fill="#97e4f9" r="31.22"/></svg>